<svg width="50" height="50" viewBox="0 0 50 50" fill="none" xmlns="http://www.w3.org/2000/svg">
<path fill-rule="evenodd" clip-rule="evenodd" d="M46.3636 25.4237L43.8236 17.7924L50 13.5593L41.3691 11.6898L44.5455 5.08475L34.8227 8.63898L36.3636 1.69492L28.6427 7.11356L25.4545 0L20.0936 6.35085L12.7273 1.69492L11.91 8.63898L3.63636 6.77966L6.14818 13.2161L0 16.9492L4.54546 18.6441L1.81818 25.4237L7.27273 21.4686V26.0102C6.64 26.1475 6.11727 26.2754 5.89 26.3356L4.61 26.6754L4.57091 27.9153C4.56818 28.0161 4.49364 30.3958 4.57182 31.8653C4.77818 35.6517 6.84818 38.2653 9.97364 38.8559C12.11 44.6559 18.4464 50 21.36 50C21.3645 50 21.37 50 21.3745 50C22.0118 49.9958 23.08 49.9966 23.8055 49.9983V50C23.8055 50 23.9564 49.9992 24.1864 49.9992C24.4236 49.9992 24.5764 50 24.5764 50V49.9983C25.2418 49.9975 26.1882 49.9966 26.8064 50C26.8109 50 26.8164 50 26.8209 50C29.78 50 36.2318 44.5525 38.31 38.6881C41.3909 38.0686 43.43 35.4703 43.6345 31.7161C43.7145 30.2449 43.6391 28.0068 43.6355 27.9119L43.5927 26.6746L42.0827 26.2729C41.77 26.1881 41.3609 26.0788 40.9091 25.9686V23.0805L46.3636 25.4237ZM19.62 23.3932L21.1855 20.0034C21.1882 19.9966 21.1945 19.9932 21.1973 19.9873C21.5782 18.3364 23.2036 17.0551 25.1982 16.95C26.6527 16.8746 27.5982 16.9856 28.0809 17.0737L30.0682 16.2025C30.5227 16.0034 31.0645 16.1847 31.2782 16.6085C31.4918 17.0322 31.2973 17.5373 30.8427 17.7364L28.57 18.7331C28.3627 18.8237 28.1273 18.839 27.9082 18.7737C27.9082 18.7737 27.0664 18.5483 25.3009 18.6424C23.9836 18.7119 22.9427 19.6186 22.93 20.7076C22.9236 21.3 23.1709 21.8771 23.6091 22.2932C24.0064 22.6695 24.5136 22.878 25.04 22.8814C25.7555 22.8847 26.3282 22.7347 26.6036 22.4559C26.8191 22.2381 26.8418 21.9593 26.8236 21.7644C26.8009 21.5246 26.6309 21.4119 26.4927 21.3602C26.2755 21.2797 25.9364 21.2797 25.6327 21.5263C25.2555 21.8347 24.6809 21.7975 24.35 21.4449C24.02 21.0924 24.0591 20.5568 24.4373 20.2492C25.2082 19.622 26.2555 19.4449 27.17 19.7873C28.0073 20.1008 28.5545 20.7839 28.6345 21.6136C28.7073 22.372 28.4609 23.0788 27.9418 23.6042C27.5009 24.0483 26.6464 24.5763 25.0682 24.5763C25.0545 24.5763 25.0409 24.5763 25.0282 24.5763C24.9827 24.5763 24.9382 24.5644 24.8927 24.5627C24.8673 24.5644 24.8455 24.5763 24.82 24.5763H20.4545C20.1491 24.5763 19.8636 24.4331 19.6955 24.1949C19.5273 23.9568 19.4982 23.6559 19.62 23.3932ZM40.0018 31.5441C39.9382 32.7161 39.5027 35.4432 36.8409 35.4432H35.0227V37.1203C35.0064 37.1763 34.9855 37.2322 34.9682 37.2881H28.1818L33.9673 39.5847C33.7573 39.9576 33.53 40.322 33.29 40.678H29.0909L32.0364 42.3339C31.7764 42.6424 31.5127 42.9373 31.2455 43.2203H28.1818L29.8336 44.5975C28.5182 45.7661 27.3445 46.517 26.8291 46.6102C26.0418 46.6059 24.72 46.6076 24.1155 46.6093C23.42 46.6085 22.1227 46.6076 21.4409 46.6161C20.9136 46.5229 19.7882 45.8212 18.5218 44.7178L20 43.2203L16.9691 43.2144C16.7327 42.9627 16.4991 42.7017 16.2682 42.4314L19.0909 40.678H14.9336C14.7682 40.4314 14.6109 40.1797 14.46 39.9246L20 37.2881H13.26C13.2355 37.2085 13.2045 37.1288 13.1818 37.0483V35.5932H11.3636C8.70273 35.5932 8.26636 32.8661 8.20273 31.6949C8.16546 31.0068 8.16727 30.0559 8.17727 29.2932C8.55818 29.2119 8.95909 29.1339 9.33909 29.0678C9.35182 29.0661 9.36455 29.0678 9.37727 29.0661C9.58455 29.0356 9.79182 29.0144 9.99909 28.9847L11.8173 33.05L12.7491 28.6254C14.0336 28.4771 15.3155 28.3508 16.5955 28.2525C15.9091 28.6186 15.4409 29.3 15.4409 30.089C15.4409 31.261 16.4618 32.2127 17.72 32.2127C18.9773 32.2127 19.9991 31.261 19.9991 30.089C19.9991 29.2076 19.4209 28.4517 18.5991 28.1305C22.3027 27.9178 25.9818 27.9136 29.6227 28.117C28.7791 28.4271 28.18 29.1915 28.18 30.0898C28.18 31.2619 29.1982 32.2136 30.4527 32.2136C31.7073 32.2136 32.7255 31.2619 32.7255 30.0898C32.7255 29.2805 32.2336 28.5839 31.52 28.2254C32.7973 28.322 34.0682 28.4466 35.3345 28.5949L36.3636 33.0508L38.0418 28.9627C38.2909 28.9992 38.5427 29.0254 38.7918 29.0644C38.8918 29.0805 38.9918 29.0873 39.0918 29.0873C39.1355 29.0873 39.1782 29.0797 39.2218 29.0763C39.4927 29.1314 39.7673 29.1932 40.0291 29.2576C40.0382 29.9754 40.0391 30.8678 40.0018 31.5441Z" fill="#181818"/>
</svg>
